HIERARCHY
ROOT mixamorig:Hips
{
	OFFSET -0.000008 104.274872 1.554316
	CHANNELS 6 Xposition Yposition Zposition Xrotation Yrotation Zrotation
	JOINT mixamorig:Spine
	{
		OFFSET -0.000005 10.181595 0.131519
		CHANNELS 6 Xposition Yposition Zposition Xrotation Yrotation Zrotation
		JOINT mixamorig:Spine1
		{
			OFFSET -0.000000 9.893959 -1.470707
			CHANNELS 6 Xposition Yposition Zposition Xrotation Yrotation Zrotation
			JOINT mixamorig:Spine2
			{
				OFFSET -0.000000 9.220757 -1.370641
				CHANNELS 6 Xposition Yposition Zposition Xrotation Yrotation Zrotation
				JOINT mixamorig:Neck
				{
					OFFSET 0.000001 16.740417 -2.049036
					CHANNELS 6 Xposition Yposition Zposition Xrotation Yrotation Zrotation
					JOINT mixamorig:Head
					{
						OFFSET 0.000000 9.617874 1.685006
						CHANNELS 6 Xposition Yposition Zposition Xrotation Yrotation Zrotation
						JOINT mixamorig:HeadTop_End
						{
							OFFSET 0.000002 22.037354 7.501101
							CHANNELS 6 Xposition Yposition Zposition Xrotation Yrotation Zrotation
							End Site
							{
								OFFSET 0.000168 2310.654297 -282.823242
							}
						}
					}
				}
				JOINT mixamorig:RightShoulder
				{
					OFFSET -4.569970 11.014908 -2.160885
					CHANNELS 6 Xposition Yposition Zposition Xrotation Yrotation Zrotation
					JOINT mixamorig:RightArm
					{
						OFFSET -10.592851 -0.524811 -2.232101
						CHANNELS 6 Xposition Yposition Zposition Xrotation Yrotation Zrotation
						JOINT mixamorig:RightForeArm
						{
							OFFSET -27.841511 0.000031 -0.000004
							CHANNELS 6 Xposition Yposition Zposition Xrotation Yrotation Zrotation
							JOINT mixamorig:RightHand
							{
								OFFSET -28.328831 -0.000015 0.000015
								CHANNELS 6 Xposition Yposition Zposition Xrotation Yrotation Zrotation
								JOINT mixamorig:RightHandThumb1
								{
									OFFSET -2.464806 -1.573990 2.681852
									CHANNELS 6 Xposition Yposition Zposition Xrotation Yrotation Zrotation
									JOINT mixamorig:RightHandThumb2
									{
										OFFSET -3.215179 -1.872803 1.924282
										CHANNELS 6 Xposition Yposition Zposition Xrotation Yrotation Zrotation
										JOINT mixamorig:RightHandThumb3
										{
											OFFSET -2.654831 -1.527969 1.512609
											CHANNELS 6 Xposition Yposition Zposition Xrotation Yrotation Zrotation
											JOINT mixamorig:RightHandThumb4
											{
												OFFSET -2.018814 -1.152008 1.108052
												CHANNELS 6 Xposition Yposition Zposition Xrotation Yrotation Zrotation
												End Site
												{
													OFFSET -188.809540 -114.533607 132.431396
												}
											}
										}
									}
								}
								JOINT mixamorig:RightHandIndex1
								{
									OFFSET -9.108284 -0.517868 2.259835
									CHANNELS 6 Xposition Yposition Zposition Xrotation Yrotation Zrotation
									JOINT mixamorig:RightHandIndex2
									{
										OFFSET -3.699989 0.000000 0.001215
										CHANNELS 6 Xposition Yposition Zposition Xrotation Yrotation Zrotation
										JOINT mixamorig:RightHandIndex3
										{
											OFFSET -2.850006 0.000031 -0.000522
											CHANNELS 6 Xposition Yposition Zposition Xrotation Yrotation Zrotation
											JOINT mixamorig:RightHandIndex4
											{
												OFFSET -2.772186 -0.000015 -0.000020
												CHANNELS 6 Xposition Yposition Zposition Xrotation Yrotation Zrotation
												End Site
												{
													OFFSET -277.218445 0.000000 -0.050231
												}
											}
										}
									}
								}
								JOINT mixamorig:RightHandMiddle1
								{
									OFFSET -9.532516 -0.000031 -0.000023
									CHANNELS 6 Xposition Yposition Zposition Xrotation Yrotation Zrotation
									JOINT mixamorig:RightHandMiddle2
									{
										OFFSET -3.700005 -0.000015 0.003713
										CHANNELS 6 Xposition Yposition Zposition Xrotation Yrotation Zrotation
										JOINT mixamorig:RightHandMiddle3
										{
											OFFSET -2.949974 0.000015 -0.002054
											CHANNELS 6 Xposition Yposition Zposition Xrotation Yrotation Zrotation
											JOINT mixamorig:RightHandMiddle4
											{
												OFFSET -2.946640 0.000000 -0.000156
												CHANNELS 6 Xposition Yposition Zposition Xrotation Yrotation Zrotation
												End Site
												{
													OFFSET -294.664337 0.000000 -0.113670
												}
											}
										}
									}
								}
								JOINT mixamorig:RightHandRing1
								{
									OFFSET -9.103600 -0.043076 -1.865134
									CHANNELS 6 Xposition Yposition Zposition Xrotation Yrotation Zrotation
									JOINT mixamorig:RightHandRing2
									{
										OFFSET -3.379288 0.000000 -0.001055
										CHANNELS 6 Xposition Yposition Zposition Xrotation Yrotation Zrotation
										JOINT mixamorig:RightHandRing3
										{
											OFFSET -2.889687 -0.000015 0.000379
											CHANNELS 6 Xposition Yposition Zposition Xrotation Yrotation Zrotation
											JOINT mixamorig:RightHandRing4
											{
												OFFSET -2.638809 -0.000015 0.000941
												CHANNELS 6 Xposition Yposition Zposition Xrotation Yrotation Zrotation
												End Site
												{
													OFFSET -263.880371 0.000000 0.516020
												}
											}
										}
									}
								}
								JOINT mixamorig:RightHandPinky1
								{
									OFFSET -8.076683 -0.486710 -3.806280
									CHANNELS 6 Xposition Yposition Zposition Xrotation Yrotation Zrotation
									JOINT mixamorig:RightHandPinky2
									{
										OFFSET -3.600014 -0.000015 -0.003747
										CHANNELS 6 Xposition Yposition Zposition Xrotation Yrotation Zrotation
										JOINT mixamorig:RightHandPinky3
										{
											OFFSET -2.099983 0.000000 -0.005739
											CHANNELS 6 Xposition Yposition Zposition Xrotation Yrotation Zrotation
											JOINT mixamorig:RightHandPinky4
											{
												OFFSET -2.115768 -0.000031 -0.003680
												CHANNELS 6 Xposition Yposition Zposition Xrotation Yrotation Zrotation
												End Site
												{
													OFFSET -211.577087 0.000000 -0.350686
												}
											}
										}
									}
								}
							}
						}
					}
				}
				JOINT mixamorig:LeftShoulder
				{
					OFFSET 4.570447 11.014725 -2.160855
					CHANNELS 6 Xposition Yposition Zposition Xrotation Yrotation Zrotation
					JOINT mixamorig:LeftArm
					{
						OFFSET 10.592371 -0.524597 -2.232119
						CHANNELS 6 Xposition Yposition Zposition Xrotation Yrotation Zrotation
						JOINT mixamorig:LeftForeArm
						{
							OFFSET 27.841532 -0.000031 0.000026
							CHANNELS 6 Xposition Yposition Zposition Xrotation Yrotation Zrotation
							JOINT mixamorig:LeftHand
							{
								OFFSET 28.328846 -0.000061 0.000022
								CHANNELS 6 Xposition Yposition Zposition Xrotation Yrotation Zrotation
								JOINT mixamorig:LeftHandThumb1
								{
									OFFSET 2.466141 -1.576172 2.681732
									CHANNELS 6 Xposition Yposition Zposition Xrotation Yrotation Zrotation
									JOINT mixamorig:LeftHandThumb2
									{
										OFFSET 3.217812 -1.872070 1.916482
										CHANNELS 6 Xposition Yposition Zposition Xrotation Yrotation Zrotation
										JOINT mixamorig:LeftHandThumb3
										{
											OFFSET 2.656029 -1.528778 1.514513
											CHANNELS 6 Xposition Yposition Zposition Xrotation Yrotation Zrotation
											JOINT mixamorig:LeftHandThumb4
											{
												OFFSET 2.020889 -1.154053 1.115139
												CHANNELS 6 Xposition Yposition Zposition Xrotation Yrotation Zrotation
												End Site
												{
													OFFSET 190.885437 -115.081749 130.048782
												}
											}
										}
									}
								}
								JOINT mixamorig:LeftHandIndex1
								{
									OFFSET 9.109314 -0.518021 2.259871
									CHANNELS 6 Xposition Yposition Zposition Xrotation Yrotation Zrotation
									JOINT mixamorig:LeftHandIndex2
									{
										OFFSET 3.699989 0.000000 -0.000322
										CHANNELS 6 Xposition Yposition Zposition Xrotation Yrotation Zrotation
										JOINT mixamorig:LeftHandIndex3
										{
											OFFSET 2.850006 0.000000 0.000352
											CHANNELS 6 Xposition Yposition Zposition Xrotation Yrotation Zrotation
											JOINT mixamorig:LeftHandIndex4
											{
												OFFSET 2.774864 -0.000031 -0.000027
												CHANNELS 6 Xposition Yposition Zposition Xrotation Yrotation Zrotation
												End Site
												{
													OFFSET 277.486267 0.000000 -0.009857
												}
											}
										}
									}
								}
								JOINT mixamorig:LeftHandMiddle1
								{
									OFFSET 9.533394 0.000061 0.000044
									CHANNELS 6 Xposition Yposition Zposition Xrotation Yrotation Zrotation
									JOINT mixamorig:LeftHandMiddle2
									{
										OFFSET 3.699989 -0.000015 -0.000231
										CHANNELS 6 Xposition Yposition Zposition Xrotation Yrotation Zrotation
										JOINT mixamorig:LeftHandMiddle3
										{
											OFFSET 2.949997 -0.000015 -0.000059
											CHANNELS 6 Xposition Yposition Zposition Xrotation Yrotation Zrotation
											JOINT mixamorig:LeftHandMiddle4
											{
												OFFSET 2.952896 0.000031 0.000063
												CHANNELS 6 Xposition Yposition Zposition Xrotation Yrotation Zrotation
												End Site
												{
													OFFSET 295.289337 0.000000 0.022810
												}
											}
										}
									}
								}
								JOINT mixamorig:LeftHandRing1
								{
									OFFSET 9.104523 -0.042999 -1.865074
									CHANNELS 6 Xposition Yposition Zposition Xrotation Yrotation Zrotation
									JOINT mixamorig:LeftHandRing2
									{
										OFFSET 3.150009 -0.000031 0.000043
										CHANNELS 6 Xposition Yposition Zposition Xrotation Yrotation Zrotation
										JOINT mixamorig:LeftHandRing3
										{
											OFFSET 2.949982 -0.000015 0.000040
											CHANNELS 6 Xposition Yposition Zposition Xrotation Yrotation Zrotation
											JOINT mixamorig:LeftHandRing4
											{
												OFFSET 2.644348 0.000000 0.000057
												CHANNELS 6 Xposition Yposition Zposition Xrotation Yrotation Zrotation
												End Site
												{
													OFFSET 264.434631 0.000000 0.012105
												}
											}
										}
									}
								}
								JOINT mixamorig:LeftHandPinky1
								{
									OFFSET 8.077789 -0.486847 -3.806259
									CHANNELS 6 Xposition Yposition Zposition Xrotation Yrotation Zrotation
									JOINT mixamorig:LeftHandPinky2
									{
										OFFSET 3.599953 0.000031 0.014727
										CHANNELS 6 Xposition Yposition Zposition Xrotation Yrotation Zrotation
										JOINT mixamorig:LeftHandPinky3
										{
											OFFSET 2.100021 0.000015 0.007705
											CHANNELS 6 Xposition Yposition Zposition Xrotation Yrotation Zrotation
											JOINT mixamorig:LeftHandPinky4
											{
												OFFSET 2.125504 0.000031 0.007517
												CHANNELS 6 Xposition Yposition Zposition Xrotation Yrotation Zrotation
												End Site
												{
													OFFSET 212.550781 0.000000 0.625752
												}
											}
										}
									}
								}
							}
						}
					}
				}
			}
		}
	}
	JOINT mixamorig:RightUpLeg
	{
		OFFSET -8.207787 -6.751648 -1.599560
		CHANNELS 6 Xposition Yposition Zposition Xrotation Yrotation Zrotation
		JOINT mixamorig:RightLeg
		{
			OFFSET -0.000002 -44.370117 0.345942
			CHANNELS 6 Xposition Yposition Zposition Xrotation Yrotation Zrotation
			JOINT mixamorig:RightFoot
			{
				OFFSET 0.000003 -44.423679 -3.043532
				CHANNELS 6 Xposition Yposition Zposition Xrotation Yrotation Zrotation
				JOINT mixamorig:RightToeBase
				{
					OFFSET -0.000002 -8.728671 10.710558
					CHANNELS 6 Xposition Yposition Zposition Xrotation Yrotation Zrotation
					JOINT mixamorig:RightToe_End
					{
						OFFSET -0.000001 -0.000679 9.278119
						CHANNELS 6 Xposition Yposition Zposition Xrotation Yrotation Zrotation
						End Site
						{
							OFFSET 0.000000 -0.067690 927.812134
						}
					}
				}
			}
		}
	}
	JOINT mixamorig:LeftUpLeg
	{
		OFFSET 8.207793 -6.751686 -1.599556
		CHANNELS 6 Xposition Yposition Zposition Xrotation Yrotation Zrotation
		JOINT mixamorig:LeftLeg
		{
			OFFSET -0.000004 -44.370014 0.346954
			CHANNELS 6 Xposition Yposition Zposition Xrotation Yrotation Zrotation
			JOINT mixamorig:LeftFoot
			{
				OFFSET -0.000001 -44.423672 -3.044401
				CHANNELS 6 Xposition Yposition Zposition Xrotation Yrotation Zrotation
				JOINT mixamorig:LeftToeBase
				{
					OFFSET -0.000002 -8.728669 10.710558
					CHANNELS 6 Xposition Yposition Zposition Xrotation Yrotation Zrotation
					JOINT mixamorig:LeftToe_End
					{
						OFFSET -0.000003 -0.000679 9.278133
						CHANNELS 6 Xposition Yposition Zposition Xrotation Yrotation Zrotation
						End Site
						{
							OFFSET 0.000000 -0.068021 927.813477
						}
					}
				}
			}
		}
	}
}
MOTION
Frames: 3
Frame Time: 0.033333
0.000006 104.270477 1.554256 0.000010 0.000003 -0.000113 -0.000005 10.181587 0.131522 0.000001 -0.000003 0.000084 -0.000000 9.893967 -1.470711 0.000001 0.000000 -0.000000 -0.000000 9.220802 -1.370642 0.000000 -0.000000 -0.000000 0.000001 16.740433 -2.049030 0.000000 -0.000000 -0.000000 0.000000 9.617859 1.685014 0.000000 0.000000 0.000000 0.000002 22.037384 7.501101 0.000000 -0.000000 0.000000 -4.569968 11.014880 -2.160881 0.000008 0.000001 -0.000038 -10.592876 -0.524757 -2.231895 73.427648 28.074229 -21.123084 -27.841518 0.000011 0.000539 -54.025242 114.548686 76.851151 -28.328821 0.000007 0.000026 -0.000325 -0.000046 0.000007 -2.464444 -1.573938 2.682367 -27.716172 -150.193674 29.163531 -3.215237 -1.872501 1.924610 148.370574 34.422193 33.782973 -2.654944 -1.527869 1.513067 147.734629 27.454625 -30.372581 -2.018841 -1.152013 1.108058 -0.000006 0.000003 0.000002 -9.108389 -0.517559 2.260148 107.243771 16.382934 -22.176209 -3.700062 0.000325 0.001547 106.837559 11.402197 -15.291545 -2.850079 0.000379 -0.000214 106.969034 9.495379 -12.799710 -2.772149 0.000002 -0.000015 -0.000000 -0.000001 0.000001 -9.532612 0.000263 0.000253 95.238853 17.085681 -18.853294 -3.700041 0.000337 0.003980 96.829099 9.871348 -11.012836 -2.950057 0.000341 -0.001782 99.483734 10.998041 -12.963687 -2.946634 0.000001 -0.000155 0.000002 0.000000 0.000001 -9.103718 -0.042755 -1.864887 90.201254 18.572123 -18.590952 -3.379330 0.000310 -0.000807 94.337043 8.898833 -9.614647 -2.889754 0.000365 0.000678 101.486263 7.073269 -8.705518 -2.638807 -0.000029 0.000944 -0.000000 -0.000001 -0.000001 -8.076757 -0.486392 -3.806047 80.088688 18.950824 -15.839108 -3.600063 0.000267 -0.003535 82.914057 11.310287 -9.672448 -2.100029 0.000303 -0.005485 88.122465 8.038481 -7.560676 -2.115775 -0.000054 -0.003671 0.000003 -0.000001 -0.000003 4.570446 11.014691 -2.160851 -0.000018 0.000010 -0.000021 10.592526 -0.524535 -2.232391 67.294616 -66.393735 47.066120 27.841717 -0.000091 -0.000075 68.874753 -108.265486 86.963628 28.328831 0.000003 0.000031 0.000017 -0.000089 -0.000000 2.466148 -1.576187 2.681827 144.332866 164.663812 -171.775952 3.217832 -1.871982 1.916546 -67.543754 28.329582 22.780969 2.656047 -1.528788 1.514600 -116.706500 45.525953 60.072627 2.020891 -1.154084 1.115145 0.000001 0.000001 -0.000001 9.109272 -0.517730 2.260088 -126.516017 -6.547157 -12.935815 3.700067 0.000045 -0.000283 -187.244513 -10.736390 112.237261 2.850045 0.000309 0.000230 -244.917579 -4.811399 7.555984 2.774874 -0.000050 -0.000031 0.000000 -0.000002 -0.000001 9.533402 0.000321 0.000265 -123.587765 -1.814678 -3.369973 3.699835 0.000394 -0.000245 -197.208516 7.016812 -44.121741 2.949992 0.000228 -0.000222 -262.591732 4.600144 -5.233600 2.952859 -0.000033 0.000047 -0.000001 -0.000002 -0.000000 9.104538 -0.042768 -1.864865 -120.217258 0.346247 0.599570 3.149744 0.000305 -0.000110 132.450523 32.357420 -66.736317 2.949924 0.000222 -0.000171 80.979201 15.344411 -13.120892 2.644312 0.000031 0.000053 0.000000 -0.000001 -0.000001 8.077793 -0.486627 -3.806021 -113.342358 2.091225 2.441077 3.599760 0.000036 0.014665 178.292089 60.126087 -177.767886 2.099820 0.000216 0.007484 268.512167 142.968277 -216.066682 2.125503 -0.000017 0.007516 -0.000001 0.000000 -0.000003 -8.207786 -6.751667 -1.599560 -0.077001 -0.000003 0.000080 -0.000002 -44.370110 0.345938 0.153719 -0.000000 -0.000000 0.000000 -44.423679 -3.043532 -0.076700 0.000000 -0.000002 -0.000006 -8.728667 10.710559 -0.000009 -0.000000 -0.000000 -0.000001 -0.000679 9.278123 0.000000 -0.000000 -0.000000 8.207792 -6.751710 -1.599556 -0.074518 -0.000003 0.000081 -0.000002 -44.370014 0.346960 0.148822 0.000002 0.000000 -0.000001 -44.423664 -3.044403 -0.074314 0.000000 -0.000002 -0.000004 -8.728671 10.710558 0.000007 -0.000000 -0.000000 0.000000 -0.000680 9.278137 -0.000000 0.000000 -0.000001 
0.000006 104.270477 1.554256 0.000010 0.000003 -0.000113 -0.000005 10.181587 0.131522 0.000001 -0.000003 0.000084 -0.000000 9.893967 -1.470711 0.000001 0.000000 -0.000000 -0.000000 9.220802 -1.370642 0.000000 -0.000000 -0.000000 0.000001 16.740433 -2.049030 0.000000 -0.000000 -0.000000 0.000000 9.617859 1.685014 0.000000 0.000000 0.000000 0.000002 22.037384 7.501101 0.000000 -0.000000 0.000000 -4.569968 11.014880 -2.160881 0.000008 0.000001 -0.000038 -10.592875 -0.524753 -2.231917 73.180231 27.876874 -20.879735 -27.841524 0.000015 0.000539 -53.988964 114.833225 77.112576 -28.328842 0.000006 0.000023 -0.000324 -0.000046 0.000006 -2.464442 -1.573948 2.682381 -27.452171 -150.577941 29.886954 -3.215253 -1.872492 1.924619 149.960123 34.369649 29.307870 -2.654984 -1.527884 1.513064 147.983452 27.348313 -31.071026 -2.018828 -1.151995 1.108052 -0.000004 -0.000003 0.000006 -9.108396 -0.517564 2.260150 107.238013 16.669157 -22.555928 -3.700062 0.000315 0.001561 106.422359 11.500161 -15.307639 -2.850076 0.000375 -0.000206 106.343074 9.509001 -12.673852 -2.772188 -0.000015 -0.000021 -0.000002 -0.000001 0.000001 -9.532608 0.000263 0.000255 94.766416 17.484745 -19.133114 -3.700059 0.000339 0.003983 96.483560 9.995876 -11.085637 -2.950035 0.000345 -0.001799 99.116372 11.035102 -12.923772 -2.946626 0.000003 -0.000155 -0.000001 0.000002 0.000000 -9.103695 -0.042758 -1.864870 89.954554 18.909000 -18.848949 -3.379333 0.000333 -0.000802 94.022513 8.965546 -9.633636 -2.889762 0.000353 0.000667 101.134529 7.128328 -8.718261 -2.638819 -0.000016 0.000943 -0.000000 0.000001 0.000001 -8.076759 -0.486406 -3.806046 79.828731 19.325042 -16.082410 -3.600061 0.000262 -0.003543 82.853125 11.687360 -9.994122 -2.100017 0.000296 -0.005486 87.976279 8.307042 -7.800011 -2.115765 -0.000039 -0.003679 0.000005 -0.000000 -0.000001 4.570446 11.014691 -2.160851 -0.000018 0.000010 -0.000021 10.592527 -0.524541 -2.232394 67.990927 -67.471846 48.491399 27.841717 -0.000062 -0.000086 69.453694 -108.236594 87.551981 28.328840 -0.000013 0.000027 0.000021 -0.000089 -0.000000 2.466142 -1.576203 2.681826 144.937789 163.223804 -172.161789 3.217829 -1.871995 1.916529 -66.715806 29.489687 22.552902 2.656032 -1.528772 1.514603 -116.477866 45.764224 60.022459 2.020880 -1.154053 1.115166 0.000002 0.000008 0.000001 9.109275 -0.517731 2.260105 -126.253629 -7.280778 -14.296050 3.699944 -0.000069 -0.000245 -183.562031 -15.181086 153.854697 2.850063 0.000284 0.000234 -239.267182 -9.829902 17.190256 2.774880 -0.000045 -0.000029 -0.000001 0.000002 -0.000003 9.533396 0.000324 0.000269 -124.143702 -1.679968 -3.155553 3.699927 0.000408 -0.000237 -196.255596 2.833543 -19.662086 2.949990 0.000255 -0.000211 -259.795124 1.071368 -1.278548 2.952870 0.000001 0.000076 -0.000001 0.000001 -0.000002 9.104538 -0.042783 -1.864855 -120.228637 0.807110 1.401566 3.149716 0.000310 -0.000098 138.330974 33.884480 -77.353702 2.949912 0.000233 -0.000168 82.854231 17.147852 -15.156403 2.644325 0.000046 0.000061 -0.000001 0.000002 0.000000 8.077802 -0.486664 -3.806027 -111.549085 3.876162 4.960582 3.599780 -0.000003 0.014678 185.089725 64.143775 -188.815990 2.099803 0.000199 0.007506 275.392162 135.753971 -228.134233 2.125499 0.000010 0.007507 -0.000002 0.000001 -0.000001 -8.207786 -6.751667 -1.599560 -0.077001 -0.000003 0.000080 -0.000002 -44.370110 0.345938 0.153719 -0.000000 -0.000000 0.000000 -44.423679 -3.043532 -0.076700 0.000000 -0.000002 -0.000006 -8.728667 10.710559 -0.000009 -0.000000 -0.000000 -0.000001 -0.000679 9.278123 0.000000 -0.000000 -0.000000 8.207792 -6.751710 -1.599556 -0.074518 -0.000003 0.000081 -0.000002 -44.370014 0.346960 0.148822 0.000002 0.000000 -0.000001 -44.423664 -3.044403 -0.074314 0.000000 -0.000002 -0.000004 -8.728671 10.710558 0.000007 -0.000000 -0.000000 0.000000 -0.000680 9.278137 -0.000000 0.000000 -0.000001 
0.000006 104.270477 1.554256 0.000010 0.000003 -0.000113 -0.000005 10.181587 0.131522 0.000001 -0.000003 0.000084 -0.000000 9.893967 -1.470711 0.000001 0.000000 -0.000000 -0.000000 9.220802 -1.370642 0.000000 -0.000000 -0.000000 0.000001 16.740433 -2.049030 0.000000 -0.000000 -0.000000 0.000000 9.617859 1.685014 0.000000 0.000000 0.000000 0.000002 22.037384 7.501101 0.000000 -0.000000 0.000000 -4.569968 11.014880 -2.160881 0.000008 0.000001 -0.000038 -10.592875 -0.524761 -2.231912 73.175751 27.759282 -20.788444 -27.841518 0.000009 0.000557 -54.007149 116.339186 78.767408 -28.328819 -0.000007 0.000028 -0.000324 -0.000045 0.000006 -2.464434 -1.573933 2.682375 -27.289811 -150.728642 30.280995 -3.215248 -1.872528 1.924602 150.147926 34.477555 29.643680 -2.654984 -1.527887 1.513061 148.171378 27.279251 -31.469748 -2.018831 -1.152007 1.108059 -0.000003 -0.000007 0.000004 -9.108388 -0.517544 2.260159 107.340705 16.750897 -22.706460 -3.700049 0.000327 0.001555 106.326921 11.558213 -15.358273 -2.850080 0.000377 -0.000212 106.089128 9.491227 -12.592457 -2.772172 0.000002 -0.000020 -0.000001 -0.000000 0.000001 -9.532600 0.000267 0.000248 95.045231 17.533159 -19.277763 -3.700053 0.000340 0.003978 96.943867 10.110808 -11.304473 -2.950065 0.000345 -0.001785 99.483973 11.167926 -13.163609 -2.946631 -0.000012 -0.000157 0.000000 -0.000001 -0.000000 -9.103708 -0.042754 -1.864884 90.112591 18.707010 -18.697785 -3.379329 0.000306 -0.000801 94.433451 8.856520 -9.585127 -2.889754 0.000365 0.000662 101.398898 7.112861 -8.740352 -2.638816 -0.000013 0.000941 0.000001 -0.000001 -0.000000 -8.076756 -0.486396 -3.806056 80.036881 19.097988 -15.949146 -3.600048 0.000258 -0.003525 83.794960 11.437294 -9.936367 -2.100041 0.000304 -0.005494 88.621704 8.173577 -7.758209 -2.115778 -0.000043 -0.003674 -0.000006 0.000001 -0.000002 4.570446 11.014691 -2.160851 -0.000018 0.000010 -0.000021 10.592525 -0.524544 -2.232391 67.789252 -66.813723 47.797315 27.841715 -0.000083 -0.000083 67.792325 -108.621509 86.175609 28.328831 0.000003 0.000038 0.000022 -0.000088 -0.000000 2.466141 -1.576200 2.681821 142.931243 163.585435 -171.341716 3.217827 -1.871986 1.916536 -70.950461 32.347404 25.211857 2.656028 -1.528804 1.514586 -128.294339 47.530552 70.704370 2.020890 -1.154083 1.115134 0.000002 0.000003 0.000006 9.109245 -0.517695 2.260077 -136.516371 -8.687640 -21.549539 3.700078 0.000163 -0.000429 -253.275381 -24.081488 32.031811 2.850030 0.000125 0.000190 -294.698538 -11.472910 7.365209 2.774873 -0.000042 -0.000026 -0.000001 -0.000001 0.000003 9.533384 0.000356 0.000246 -132.515137 -2.458524 -5.570570 3.700014 0.000210 -0.000405 -266.042562 -2.226456 2.383265 2.950015 0.000120 -0.000212 -297.201803 -1.807511 1.104882 2.952873 -0.000014 0.000062 -0.000001 0.000000 0.000000 9.104541 -0.042741 -1.864857 -126.951729 1.686922 3.375850 3.149932 0.000241 -0.000184 82.683743 20.453585 -18.037703 2.949950 0.000149 -0.000142 60.166351 10.085246 -5.851624 2.644329 0.000018 0.000063 0.000002 -0.000003 -0.000001 8.077818 -0.486633 -3.806027 -117.539414 7.689830 11.775851 3.599844 0.000171 0.014520 247.305768 143.133854 -204.975316 2.099926 0.000150 0.007512 239.741880 153.394970 -195.375703 2.125483 -0.000001 0.007517 -0.000002 0.000001 0.000002 -8.207786 -6.751667 -1.599560 -0.077001 -0.000003 0.000080 -0.000002 -44.370110 0.345938 0.153719 -0.000000 -0.000000 0.000000 -44.423679 -3.043532 -0.076700 0.000000 -0.000002 -0.000006 -8.728667 10.710559 -0.000009 -0.000000 -0.000000 -0.000001 -0.000679 9.278123 0.000000 -0.000000 -0.000000 8.207792 -6.751710 -1.599556 -0.074518 -0.000003 0.000081 -0.000002 -44.370014 0.346960 0.148822 0.000002 0.000000 -0.000001 -44.423664 -3.044403 -0.074314 0.000000 -0.000002 -0.000004 -8.728671 10.710558 0.000007 -0.000000 -0.000000 0.000000 -0.000680 9.278137 -0.000000 0.000000 -0.000001 
